#!OML:ASF H:\Terrain\Patient Classification 1\Animal1\Tuesday\Animal1.ASF
:FULLY-SPECIFIED
:DEGREES
3994
root 12.8956 16.5437 -6.1098 11.5735 -3.26435 1.26576
lowerback -5.53676 -0.0566052 -0.644261
upperback -7.91075 -0.0391486 0.906369
thorax -5.09892 0.0402898 1.30079
lowerneck -9.9244 0.352979 -4.84357
upperneck 13.8261 0.0041749 8.24949
head 5.79578 0.36536 3.41434
rclavicle 3.18055e-015 -2.0276e-014
rhumerus -107.387 47.1443 -131.653
rradius 89.2531
rwrist -47.3085
rhand 0.905074 27.7799
rfingers 7.12502
rthumb 26.457 -0.393359
lclavicle 3.18055e-015 -2.0276e-014
lhumerus -92.9356 -52.303 127.798
lradius 90.5444
lwrist 35.9546
lhand 43.7121 32.613
lfingers 7.12502
lthumb 65.3915 39.1243
rfemur -22.6117 51.9508 4.20022
rtibia 23.4767
rfoot -36.8278 -48.9989
rtoes 32.7674
lfemur -186.889 219.867 -190.526
ltibia 7.48179
lfoot -34.8347 29.8687
ltoes 33.2068
3995
root 12.8948 16.5408 -6.10589 11.5251 -3.41724 1.24274
lowerback -5.59234 -0.0570671 -0.653167
upperback -7.8563 -0.0397477 0.914802
thorax -5.00962 0.0398267 1.31421
lowerneck -9.86845 0.319815 -4.89438
upperneck 13.7 -0.04664 8.37342
head 5.75001 0.344696 3.45593
rclavicle -6.11263e-015 -2.38542e-015
rhumerus -106.944 47.4274 -131.256
rradius 89.18
rwrist -46.2997
rhand 1.13357 27.6407
rfingers 7.12502
rthumb 26.6757 -0.499509
lclavicle -6.11263e-015 -2.38542e-015
lhumerus -92.3983 -52.2631 127.288
lradius 90.2246
lwrist 36.8806
lhand 42.9828 32.669
lfingers 7.12502
lthumb 64.8169 40.1478
rfemur -22.5647 52.122 4.19816
rtibia 23.3323
rfoot -35.8943 -49.599
rtoes 31.4049
lfemur -186.87 219.737 -190.69
ltibia 7.84651
lfoot -35.1398 29.6339
ltoes 33.467
3996
root 12.8945 16.5419 -6.10309 11.5788 -3.5592 0.962795
lowerback -5.7021 -0.0387471 -0.393782
upperback -7.83958 -0.0182876 0.996125
thorax -4.93035 0.0385543 1.25341
lowerneck -9.85812 0.272959 -4.88986
upperneck 13.6862 -0.118042 8.41837
head 5.74897 0.313005 3.46386
rclavicle -1.85367e-014 -1.47101e-014
rhumerus -106.495 47.7254 -130.878
rradius 89.0944
rwrist -45.7841
rhand 1.20499 27.5236
rfingers 7.12502
rthumb 26.744 -0.606174
lclavicle -1.85367e-014 -1.47101e-014
lhumerus -91.7279 -52.1159 126.571
lradius 89.8315
lwrist 37.6
lhand 42.948 32.9464
lfingers 7.12502
lthumb 64.7892 40.4703
rfemur -22.6187 52.1111 4.40616
rtibia 23.1586
rfoot -34.9674 -49.8574
rtoes 31.0142
lfemur -186.979 219.548 -190.496
ltibia 8.2135
lfoot -35.5734 29.2664
ltoes 34.4019
3997
root 12.8936 16.5462 -6.1007 11.606 -3.67794 0.709519
lowerback -5.81174 -0.0325962 -0.185119
upperback -7.77879 -0.0122291 1.09981
thorax -4.80417 0.0328733 1.24381
lowerneck -9.89606 0.222655 -4.85248
upperneck 13.6195 -0.177349 8.34756
head 5.73921 0.280852 3.42959
rclavicle -6.90777e-015 3.97569e-015
rhumerus -105.923 48.1453 -130.379
rradius 89.0395
rwrist -45.7187
rhand 1.64409 26.7925
rfingers 7.12502
rthumb 27.1642 -1.27233
lclavicle -6.90777e-015 3.97569e-015
lhumerus -90.8079 -51.9454 125.679
lradius 89.346
lwrist 38.0863
lhand 43.3204 32.9265
lfingers 7.12502
lthumb 65.0838 39.9632
rfemur -22.5458 51.881 4.70089
rtibia 22.9692
rfoot -34.5463 -49.6535
rtoes 31.7613
lfemur -187.07 219.39 -190.335
ltibia 8.59842
lfoot -35.8893 29.0161
ltoes 34.9687
3998
root 12.8922 16.5468 -6.09872 11.5835 -3.81351 0.469822
lowerback -5.82891 -0.0139787 -0.0148108
upperback -7.7107 0.0114897 1.21405
thorax -4.7228 0.0387588 1.26698
lowerneck -9.98274 0.171047 -4.81496
upperneck 13.5729 -0.232935 8.24293
head 5.74385 0.249235 3.38553
rclavicle -3.27995e-015 2.14687e-014
rhumerus -105.257 48.6422 -129.813
rradius 88.904
rwrist -46.0217
rhand 2.42517 25.6608
rfingers 7.12502
rthumb 27.9111 -2.28505
lclavicle -3.27995e-015 2.14687e-014
lhumerus -89.6887 -51.8253 124.781
lradius 88.6885
lwrist 38.4586
lhand 43.2354 32.7716
lfingers 7.12502
lthumb 65.0168 39.9205
rfemur -22.5225 51.8111 4.96751
rtibia 22.8966
rfoot -34.3937 -49.5284
rtoes 31.8569
lfemur -186.97 219.215 -190.157
ltibia 8.65078
lfoot -35.9657 28.9636
ltoes 34.7566
3999
root 12.8931 16.5463 -6.09999 11.6351 -3.86153 0.505372
lowerback -5.87617 -0.0925168 -0.109629
upperback -7.70211 -0.089642 1.28358
thorax -4.68499 -0.00523572 1.39043
lowerneck -9.98486 0.15547 -4.90959
upperneck 13.5727 -0.241906 8.26169
head 5.74461 0.241296 3.40671
rclavicle 8.64713e-015 3.57812e-015
rhumerus -104.631 49.211 -129.323
rradius 88.7207
rwrist -46.3979
rhand 2.71517 24.5473
rfingers 7.12502
rthumb 28.1884 -3.35314
lclavicle 8.64713e-015 3.57812e-015
lhumerus -88.3487 -51.5024 123.745
lradius 87.8796
lwrist 38.4943
lhand 42.6101 32.6891
lfingers 7.12502
lthumb 64.5203 40.6449
rfemur -22.7108 51.7698 4.81297
rtibia 22.9917
rfoot -34.1043 -49.5159
rtoes 31.1889
lfemur -186.922 219.154 -190.09
ltibia 8.31194
lfoot -35.974 28.8412
ltoes 34.9596
4000
root 12.8996 16.5495 -6.10227 11.7072 -3.95157 1.05723
lowerback -5.95765 -0.255923 -0.639098
upperback -7.72526 -0.297657 1.21962
thorax -4.65729 -0.0844761 1.61692
lowerneck -9.91534 0.167467 -5.10085
upperneck 13.5743 -0.206921 8.32445
head 5.73021 0.251535 3.4609
rclavicle -9.44227e-016 1.59028e-014
rhumerus -104.144 49.7919 -128.924
rradius 88.5493
rwrist -46.6825
rhand 2.40519 23.9832
rfingers 7.12502
rthumb 27.892 -3.96574
lclavicle -9.44227e-016 1.59028e-014
lhumerus -86.7762 -50.8622 122.378
lradius 87.0547
lwrist 38.1666
lhand 41.8648 32.6094
lfingers 7.12502
lthumb 63.9218 41.4849
rfemur -22.9646 51.4511 4.07384
rtibia 23.1744
rfoot -32.7116 -49.8277
rtoes 29.3656
lfemur -186.869 219.156 -190.577
ltibia 7.82672
lfoot -35.5816 29.1778
ltoes 34.4258
4001
root 12.9071 16.5513 -6.10063 11.7314 -4.1362 1.53505
lowerback -6.01884 -0.327232 -1.05136
upperback -7.73825 -0.386396 1.10889
thorax -4.63304 -0.11147 1.73114
lowerneck -9.84159 0.169784 -5.11256
upperneck 13.5315 -0.193347 8.26402
head 5.70318 0.251138 3.44311
rclavicle -9.93923e-016 -2.14687e-014
rhumerus -103.304 50.1673 -128.218
rradius 88.2121
rwrist -47.0557
rhand 2.12358 23.8537
rfingers 7.12502
rthumb 27.6228 -4.13865
lclavicle -9.93923e-016 -2.14687e-014
lhumerus -85.1503 -50.2499 120.87
lradius 86.2359
lwrist 37.828
lhand 40.9823 32.7327
lfingers 7.12502
lthumb 63.2043 42.6417
rfemur -23.1605 51.0828 3.48084
rtibia 23.3903
rfoot -31.3977 -50.0913
rtoes 28.2201
lfemur -186.62 219.062 -191.088
ltibia 7.22536
lfoot -35.1743 29.4693
ltoes 34.1717
4002
root 12.9085 16.5524 -6.09982 11.7319 -4.25048 1.55145
lowerback -6.02181 -0.327202 -1.0653
upperback -7.7344 -0.386535 1.10206
thorax -4.62726 -0.111242 1.73183
lowerneck -9.79272 0.134033 -5.13562
upperneck 13.4692 -0.240539 8.28824
head 5.67869 0.227129 3.44969
rclavicle -1.77912e-014 -1.51076e-014
rhumerus -101.962 50.3593 -127.033
rradius 87.816
rwrist -47.3917
rhand 1.74444 22.9359
rfingers 7.12502
rthumb 27.2602 -5.11396
lclavicle -1.77912e-014 -1.51076e-014
lhumerus -83.5022 -49.7774 119.435
lradius 85.3476
lwrist 37.4992
lhand 40.116 33.0648
lfingers 7.12502
lthumb 62.4913 43.9333
rfemur -23.2788 50.9295 3.45353
rtibia 23.5704
rfoot -31.5125 -49.8745
rtoes 27.8824
lfemur -186.335 218.938 -191.066
ltibia 6.62525
lfoot -34.9203 29.5116
ltoes 34.6772
4003
root 12.9078 16.5551 -6.10143 11.7544 -4.28486 1.39839
lowerback -6.00719 -0.3053 -0.908294
upperback -7.71665 -0.361042 1.11689
thorax -4.61785 -0.106296 1.65966
lowerneck -9.81278 0.0683267 -5.21479
upperneck 13.4592 -0.341723 8.45769
head 5.68624 0.186366 3.50965
rclavicle -1.1281e-014 1.03368e-014
rhumerus -100.346 50.4115 -125.53
rradius 87.475
rwrist -47.4848
rhand 0.946418 21.6029
rfingers 7.12502
rthumb 26.4966 -6.56444
lclavicle -1.1281e-014 1.03368e-014
lhumerus -81.8511 -49.4566 118.104
lradius 84.3813
lwrist 37.1989
lhand 39.0928 33.1566
lfingers 7.12502
lthumb 61.639 45.0928
rfemur -23.3983 51.014 3.54938
rtibia 23.6477
rfoot -32.0373 -49.5885
rtoes 27.4461
lfemur -186.235 218.858 -190.827
ltibia 6.3287
lfoot -34.6411 29.7353
ltoes 34.4675
